<svg xmlns="http://www.w3.org/2000/svg" xmlns:xlink="http://www.w3.org/1999/xlink" width="1366" zoomAndPan="magnify" viewBox="0 0 1024.5 576" height="768" preserveAspectRatio="xMidYMid meet" version="1.0"><defs><filter x="0%" y="0%" width="100%" height="100%" id="41a37a598f"><feColorMatrix values="0 0 0 0 1 0 0 0 0 1 0 0 0 0 1 0 0 0 1 0" color-interpolation-filters="sRGB"/></filter><clipPath id="621a397220"><path d="M 0 0.140625 L 1024 0.140625 L 1024 575.859375 L 0 575.859375 Z M 0 0.140625 " clip-rule="nonzero"/></clipPath><linearGradient x1="0" gradientTransform="matrix(0.75, 0, 0, 0.75, 0, 0.140508)" y1="0" x2="1365.333772" gradientUnits="userSpaceOnUse" y2="0" id="13a755fa8c"><stop stop-opacity="1" stop-color="rgb(22.399902%, 48.599243%, 94.099426%)" offset="0"/><stop stop-opacity="1" stop-color="rgb(22.441101%, 48.426819%, 94.068909%)" offset="0.03125"/><stop stop-opacity="1" stop-color="rgb(22.525024%, 48.083496%, 94.009399%)" offset="0.0625"/><stop stop-opacity="1" stop-color="rgb(22.608948%, 47.740173%, 93.94989%)" offset="0.09375"/><stop stop-opacity="1" stop-color="rgb(22.694397%, 47.395325%, 93.890381%)" offset="0.125"/><stop stop-opacity="1" stop-color="rgb(22.77832%, 47.052002%, 93.830872%)" offset="0.15625"/><stop stop-opacity="1" stop-color="rgb(22.862244%, 46.708679%, 93.772888%)" offset="0.1875"/><stop stop-opacity="1" stop-color="rgb(22.946167%, 46.365356%, 93.713379%)" offset="0.21875"/><stop stop-opacity="1" stop-color="rgb(23.031616%, 46.022034%, 93.65387%)" offset="0.25"/><stop stop-opacity="1" stop-color="rgb(23.11554%, 45.678711%, 93.59436%)" offset="0.28125"/><stop stop-opacity="1" stop-color="rgb(23.199463%, 45.333862%, 93.534851%)" offset="0.3125"/><stop stop-opacity="1" stop-color="rgb(23.284912%, 44.99054%, 93.475342%)" offset="0.34375"/><stop stop-opacity="1" stop-color="rgb(23.368835%, 44.647217%, 93.415833%)" offset="0.375"/><stop stop-opacity="1" stop-color="rgb(23.452759%, 44.303894%, 93.356323%)" offset="0.40625"/><stop stop-opacity="1" stop-color="rgb(23.536682%, 43.960571%, 93.296814%)" offset="0.4375"/><stop stop-opacity="1" stop-color="rgb(23.622131%, 43.617249%, 93.237305%)" offset="0.46875"/><stop stop-opacity="1" stop-color="rgb(23.706055%, 43.2724%, 93.179321%)" offset="0.5"/><stop stop-opacity="1" stop-color="rgb(23.789978%, 42.929077%, 93.119812%)" offset="0.53125"/><stop stop-opacity="1" stop-color="rgb(23.873901%, 42.585754%, 93.060303%)" offset="0.5625"/><stop stop-opacity="1" stop-color="rgb(23.959351%, 42.242432%, 93.000793%)" offset="0.59375"/><stop stop-opacity="1" stop-color="rgb(24.043274%, 41.899109%, 92.941284%)" offset="0.625"/><stop stop-opacity="1" stop-color="rgb(24.127197%, 41.555786%, 92.881775%)" offset="0.65625"/><stop stop-opacity="1" stop-color="rgb(24.211121%, 41.210938%, 92.822266%)" offset="0.6875"/><stop stop-opacity="1" stop-color="rgb(24.29657%, 40.867615%, 92.762756%)" offset="0.71875"/><stop stop-opacity="1" stop-color="rgb(24.380493%, 40.524292%, 92.703247%)" offset="0.75"/><stop stop-opacity="1" stop-color="rgb(24.464417%, 40.180969%, 92.645264%)" offset="0.78125"/><stop stop-opacity="1" stop-color="rgb(24.549866%, 39.837646%, 92.585754%)" offset="0.8125"/><stop stop-opacity="1" stop-color="rgb(24.633789%, 39.494324%, 92.526245%)" offset="0.84375"/><stop stop-opacity="1" stop-color="rgb(24.717712%, 39.149475%, 92.466736%)" offset="0.875"/><stop stop-opacity="1" stop-color="rgb(24.801636%, 38.806152%, 92.407227%)" offset="0.90625"/><stop stop-opacity="1" stop-color="rgb(24.887085%, 38.46283%, 92.347717%)" offset="0.9375"/><stop stop-opacity="1" stop-color="rgb(24.971008%, 38.119507%, 92.288208%)" offset="0.96875"/><stop stop-opacity="1" stop-color="rgb(25.054932%, 37.776184%, 92.228699%)" offset="1"/></linearGradient><clipPath id="e040dce585"><path d="M 0 0.140625 L 149 0.140625 L 149 150 L 0 150 Z M 0 0.140625 " clip-rule="nonzero"/></clipPath><mask id="e70c9398e0"><g filter="url(#41a37a598f)"><rect x="-102.45" width="1229.4" fill="#000000" y="-57.6" height="691.2" fill-opacity="0.0863"/></g></mask><clipPath id="7a044fe60c"><path d="M 0 0.140625 L 148.195312 0.140625 L 148.195312 149.003906 L 0 149.003906 Z M 0 0.140625 " clip-rule="nonzero"/></clipPath><clipPath id="6629173f90"><path d="M 30.308594 -86.773438 C -34.800781 -86.773438 -87.578125 -33.992188 -87.578125 31.117188 C -87.578125 96.222656 -34.800781 149.003906 30.308594 149.003906 C 95.414062 149.003906 148.195312 96.222656 148.195312 31.117188 C 148.195312 -33.992188 95.414062 -86.773438 30.308594 -86.773438 " clip-rule="nonzero"/></clipPath><clipPath id="8c1d8c8b98"><rect x="0" width="149" y="0" height="150"/></clipPath><clipPath id="bc7e3fc4e3"><path d="M 817 0.140625 L 1024 0.140625 L 1024 143 L 817 143 Z M 817 0.140625 " clip-rule="nonzero"/></clipPath><mask id="fbd2cdb5bd"><g filter="url(#41a37a598f)"><rect x="-102.45" width="1229.4" fill="#000000" y="-57.6" height="691.2" fill-opacity="0.2784"/></g></mask><clipPath id="78ab4fc6e8"><path d="M 0.523438 0.140625 L 207 0.140625 L 207 141.953125 L 0.523438 141.953125 Z M 0.523438 0.140625 " clip-rule="nonzero"/></clipPath><clipPath id="45ef2b6c14"><path d="M 149.898438 -156.796875 C 67.402344 -156.796875 0.523438 -89.921875 0.523438 -7.421875 C 0.523438 75.074219 67.402344 141.953125 149.898438 141.953125 C 232.398438 141.953125 299.273438 75.074219 299.273438 -7.421875 C 299.273438 -89.921875 232.398438 -156.796875 149.898438 -156.796875 " clip-rule="nonzero"/></clipPath><clipPath id="526ac84d68"><rect x="0" width="207" y="0" height="143"/></clipPath><clipPath id="b833aa70e7"><path d="M 655 177 L 1024 177 L 1024 575.859375 L 655 575.859375 Z M 655 177 " clip-rule="nonzero"/></clipPath><mask id="f50c8844d9"><g filter="url(#41a37a598f)"><rect x="-102.45" width="1229.4" fill="#000000" y="-57.6" height="691.2" fill-opacity="0.0863"/></g></mask><clipPath id="e9dcb85477"><path d="M 1.050781 1.050781 L 369 1.050781 L 369 398.859375 L 1.050781 398.859375 Z M 1.050781 1.050781 " clip-rule="nonzero"/></clipPath><clipPath id="372b497a9d"><path d="M 256.171875 1.050781 C 115.269531 1.050781 1.050781 115.269531 1.050781 256.171875 C 1.050781 397.070312 115.269531 511.292969 256.171875 511.292969 C 397.070312 511.292969 511.292969 397.070312 511.292969 256.171875 C 511.292969 115.269531 397.070312 1.050781 256.171875 1.050781 " clip-rule="nonzero"/></clipPath><clipPath id="f6d73dfaae"><rect x="0" width="369" y="0" height="399"/></clipPath><clipPath id="1500560f72"><path d="M 778 0.140625 L 857 0.140625 L 857 47 L 778 47 Z M 778 0.140625 " clip-rule="nonzero"/></clipPath><mask id="a72509a512"><g filter="url(#41a37a598f)"><rect x="-102.45" width="1229.4" fill="#000000" y="-57.6" height="691.2" fill-opacity="0.0392"/></g></mask><clipPath id="9e9b8e0e6f"><path d="M 0.984375 0.140625 L 78.0625 0.140625 L 78.0625 46.582031 L 0.984375 46.582031 Z M 0.984375 0.140625 " clip-rule="nonzero"/></clipPath><clipPath id="8c03597882"><path d="M 39.523438 -30.496094 C 18.242188 -30.496094 0.984375 -13.242188 0.984375 8.042969 C 0.984375 29.324219 18.242188 46.582031 39.523438 46.582031 C 60.808594 46.582031 78.0625 29.324219 78.0625 8.042969 C 78.0625 -13.242188 60.808594 -30.496094 39.523438 -30.496094 " clip-rule="nonzero"/></clipPath><clipPath id="390f0f1d95"><rect x="0" width="79" y="0" height="47"/></clipPath><clipPath id="1dcc62c671"><path d="M 493 288 L 912 288 L 912 575.859375 L 493 575.859375 Z M 493 288 " clip-rule="nonzero"/></clipPath><mask id="5d5164f01d"><g filter="url(#41a37a598f)"><rect x="-102.45" width="1229.4" fill="#000000" y="-57.6" height="691.2" fill-opacity="0.0471"/></g></mask><clipPath id="9225593858"><path d="M 0.226562 0.140625 L 418.171875 0.140625 L 418.171875 287.859375 L 0.226562 287.859375 Z M 0.226562 0.140625 " clip-rule="nonzero"/></clipPath><clipPath id="bc40bd6a46"><path d="M 209.199219 0.140625 C 93.785156 0.140625 0.226562 93.699219 0.226562 209.113281 C 0.226562 324.523438 93.785156 418.085938 209.199219 418.085938 C 324.609375 418.085938 418.171875 324.523438 418.171875 209.113281 C 418.171875 93.699219 324.609375 0.140625 209.199219 0.140625 " clip-rule="nonzero"/></clipPath><clipPath id="c87bce5ae3"><rect x="0" width="419" y="0" height="288"/></clipPath><mask id="529233c0f4"><g filter="url(#41a37a598f)"><rect x="-102.45" width="1229.4" fill="#000000" y="-57.6" height="691.2" fill-opacity="0.0588"/></g></mask><clipPath id="6fb8ba1393"><path d="M 0.246094 1.042969 L 49.945312 1.042969 L 49.945312 50.742188 L 0.246094 50.742188 Z M 0.246094 1.042969 " clip-rule="nonzero"/></clipPath><clipPath id="21b48a4342"><path d="M 25.09375 1.042969 C 11.371094 1.042969 0.246094 12.167969 0.246094 25.890625 C 0.246094 39.613281 11.371094 50.742188 25.09375 50.742188 C 38.820312 50.742188 49.945312 39.613281 49.945312 25.890625 C 49.945312 12.167969 38.820312 1.042969 25.09375 1.042969 " clip-rule="nonzero"/></clipPath><clipPath id="a5b8dadb17"><rect x="0" width="50" y="0" height="51"/></clipPath></defs><g clip-path="url(#621a397220)"><path fill="#ffffff" d="M 0 0.140625 L 1024.5 0.140625 L 1024.5 583.640625 L 0 583.640625 Z M 0 0.140625 " fill-opacity="1" fill-rule="nonzero"/><path fill="#ffffff" d="M 0 0.140625 L 1024.5 0.140625 L 1024.5 576.140625 L 0 576.140625 Z M 0 0.140625 " fill-opacity="1" fill-rule="nonzero"/><path fill="url(#13a755fa8c)" d="M 0 0.140625 L 0 575.859375 L 1024 575.859375 L 1024 0.140625 Z M 0 0.140625 " fill-rule="nonzero"/></g><g clip-path="url(#e040dce585)"><g mask="url(#e70c9398e0)"><g transform="matrix(1, 0, 0, 1, 0, 0.000000000000055289)"><g clip-path="url(#8c1d8c8b98)"><g clip-path="url(#7a044fe60c)"><g clip-path="url(#6629173f90)"><path fill="#f1f2f6" d="M -87.578125 -86.773438 L 148.195312 -86.773438 L 148.195312 149.003906 L -87.578125 149.003906 Z M -87.578125 -86.773438 " fill-opacity="1" fill-rule="nonzero"/></g></g></g></g></g></g><g clip-path="url(#bc7e3fc4e3)"><g mask="url(#fbd2cdb5bd)"><g transform="matrix(1, 0, 0, 1, 817, 0.000000000000055289)"><g clip-path="url(#526ac84d68)"><g clip-path="url(#78ab4fc6e8)"><g clip-path="url(#45ef2b6c14)"><path fill="#5090ff" d="M 0.523438 -156.796875 L 299.273438 -156.796875 L 299.273438 141.953125 L 0.523438 141.953125 Z M 0.523438 -156.796875 " fill-opacity="1" fill-rule="nonzero"/></g></g></g></g></g></g><g clip-path="url(#b833aa70e7)"><g mask="url(#f50c8844d9)"><g transform="matrix(1, 0, 0, 1, 655, 177)"><g clip-path="url(#f6d73dfaae)"><g clip-path="url(#e9dcb85477)"><g clip-path="url(#372b497a9d)"><path fill="#f8f8f8" d="M 1.050781 1.050781 L 511.292969 1.050781 L 511.292969 511.292969 L 1.050781 511.292969 Z M 1.050781 1.050781 " fill-opacity="1" fill-rule="nonzero"/></g></g></g></g></g></g><g clip-path="url(#1500560f72)"><g mask="url(#a72509a512)"><g transform="matrix(1, 0, 0, 1, 778, 0.000000000000055289)"><g clip-path="url(#390f0f1d95)"><g clip-path="url(#9e9b8e0e6f)"><g clip-path="url(#8c03597882)"><path fill="#fafafa" d="M 0.984375 -30.496094 L 78.0625 -30.496094 L 78.0625 46.582031 L 0.984375 46.582031 Z M 0.984375 -30.496094 " fill-opacity="1" fill-rule="nonzero"/></g></g></g></g></g></g><g clip-path="url(#1dcc62c671)"><g mask="url(#5d5164f01d)"><g transform="matrix(1, 0, 0, 1, 493, 288)"><g clip-path="url(#c87bce5ae3)"><g clip-path="url(#9225593858)"><g clip-path="url(#bc40bd6a46)"><path fill="#fafafa" d="M 0.226562 0.140625 L 418.171875 0.140625 L 418.171875 418.085938 L 0.226562 418.085938 Z M 0.226562 0.140625 " fill-opacity="1" fill-rule="nonzero"/></g></g></g></g></g></g><g mask="url(#529233c0f4)"><g transform="matrix(1, 0, 0, 1, 117, 7)"><g clip-path="url(#a5b8dadb17)"><g clip-path="url(#6fb8ba1393)"><g clip-path="url(#21b48a4342)"><path fill="#fafafa" d="M 0.246094 1.042969 L 49.945312 1.042969 L 49.945312 50.742188 L 0.246094 50.742188 Z M 0.246094 1.042969 " fill-opacity="1" fill-rule="nonzero"/></g></g></g></g></g></svg>