<svg xmlns="http://www.w3.org/2000/svg" xmlns:xlink="http://www.w3.org/1999/xlink" width="1366" zoomAndPan="magnify" viewBox="0 0 1024.5 576" height="768" preserveAspectRatio="xMidYMid meet" version="1.0"><defs><filter x="0%" y="0%" width="100%" height="100%" id="decbf79db3"><feColorMatrix values="0 0 0 0 1 0 0 0 0 1 0 0 0 0 1 0 0 0 1 0" color-interpolation-filters="sRGB"/></filter><clipPath id="7dc1d9c004"><path d="M 0 0.140625 L 1024 0.140625 L 1024 575.859375 L 0 575.859375 Z M 0 0.140625 " clip-rule="nonzero"/></clipPath><clipPath id="2a05065705"><path d="M 0 0.140625 L 90 0.140625 L 90 118 L 0 118 Z M 0 0.140625 " clip-rule="nonzero"/></clipPath><mask id="c871f7725d"><g filter="url(#decbf79db3)"><rect x="-102.45" width="1229.4" fill="#000000" y="-57.6" height="691.2" fill-opacity="0.6863"/></g></mask><clipPath id="62b7d4c41a"><path d="M 0 0.140625 L 89.84375 0.140625 L 89.84375 117.515625 L 0 117.515625 Z M 0 0.140625 " clip-rule="nonzero"/></clipPath><clipPath id="6ddb933056"><path d="M 3.445312 -55.285156 C -44.273438 -55.285156 -82.957031 -16.601562 -82.957031 31.117188 C -82.957031 78.832031 -44.273438 117.515625 3.445312 117.515625 C 51.160156 117.515625 89.84375 78.832031 89.84375 31.117188 C 89.84375 -16.601562 51.160156 -55.285156 3.445312 -55.285156 " clip-rule="nonzero"/></clipPath><clipPath id="3a48a6a56e"><rect x="0" width="90" y="0" height="118"/></clipPath><clipPath id="704d67faeb"><path d="M 0 402 L 208 402 L 208 575.859375 L 0 575.859375 Z M 0 402 " clip-rule="nonzero"/></clipPath><mask id="cf7e285797"><g filter="url(#decbf79db3)"><rect x="-102.45" width="1229.4" fill="#000000" y="-57.6" height="691.2" fill-opacity="0.8078"/></g></mask><clipPath id="1c942ac35a"><path d="M 0 0.753906 L 206.976562 0.753906 L 206.976562 173.859375 L 0 173.859375 Z M 0 0.753906 " clip-rule="nonzero"/></clipPath><clipPath id="ff1741297e"><path d="M 57.601562 0.753906 C -24.898438 0.753906 -91.773438 67.628906 -91.773438 150.128906 C -91.773438 232.625 -24.898438 299.503906 57.601562 299.503906 C 140.097656 299.503906 206.976562 232.625 206.976562 150.128906 C 206.976562 67.628906 140.097656 0.753906 57.601562 0.753906 " clip-rule="nonzero"/></clipPath><clipPath id="628df24217"><rect x="0" width="208" y="0" height="174"/></clipPath><clipPath id="e09e4fd2e1"><path d="M 912 0.140625 L 1024 0.140625 L 1024 90 L 912 90 Z M 912 0.140625 " clip-rule="nonzero"/></clipPath><mask id="5af1915504"><g filter="url(#decbf79db3)"><rect x="-102.45" width="1229.4" fill="#000000" y="-57.6" height="691.2" fill-opacity="0.6471"/></g></mask><clipPath id="276a53306d"><path d="M 0.664062 0.140625 L 112 0.140625 L 112 89.855469 L 0.664062 89.855469 Z M 0.664062 0.140625 " clip-rule="nonzero"/></clipPath><clipPath id="ac19283651"><path d="M 78.542969 -65.90625 C 35.53125 -65.90625 0.664062 -31.039062 0.664062 11.976562 C 0.664062 54.988281 35.53125 89.855469 78.542969 89.855469 C 121.554688 89.855469 156.425781 54.988281 156.425781 11.976562 C 156.425781 -31.039062 121.554688 -65.90625 78.542969 -65.90625 " clip-rule="nonzero"/></clipPath><clipPath id="d527dca9e9"><rect x="0" width="112" y="0" height="90"/></clipPath><mask id="9d316a8232"><g filter="url(#decbf79db3)"><rect x="-102.45" width="1229.4" fill="#000000" y="-57.6" height="691.2" fill-opacity="0.7882"/></g></mask><clipPath id="b660bbb45d"><path d="M 0.0742188 0.4375 L 77.152344 0.4375 L 77.152344 77.515625 L 0.0742188 77.515625 Z M 0.0742188 0.4375 " clip-rule="nonzero"/></clipPath><clipPath id="d814adbbd3"><path d="M 38.613281 0.4375 C 17.328125 0.4375 0.0742188 17.691406 0.0742188 38.976562 C 0.0742188 60.261719 17.328125 77.515625 38.613281 77.515625 C 59.894531 77.515625 77.152344 60.261719 77.152344 38.976562 C 77.152344 17.691406 59.894531 0.4375 38.613281 0.4375 " clip-rule="nonzero"/></clipPath><clipPath id="6502ef89b4"><rect x="0" width="78" y="0" height="78"/></clipPath><mask id="80e1457125"><g filter="url(#decbf79db3)"><rect x="-102.45" width="1229.4" fill="#000000" y="-57.6" height="691.2" fill-opacity="0.8"/></g></mask><clipPath id="05d7739238"><path d="M 1.128906 1.117188 L 111.664062 1.117188 L 111.664062 111.652344 L 1.128906 111.652344 Z M 1.128906 1.117188 " clip-rule="nonzero"/></clipPath><clipPath id="cfcbbc9756"><path d="M 56.394531 1.117188 C 25.871094 1.117188 1.128906 25.859375 1.128906 56.382812 C 1.128906 86.90625 25.871094 111.652344 56.394531 111.652344 C 86.917969 111.652344 111.664062 86.90625 111.664062 56.382812 C 111.664062 25.859375 86.917969 1.117188 56.394531 1.117188 " clip-rule="nonzero"/></clipPath><clipPath id="fb4bf54e9c"><rect x="0" width="112" y="0" height="112"/></clipPath><mask id="f0c69232f9"><g filter="url(#decbf79db3)"><rect x="-102.45" width="1229.4" fill="#000000" y="-57.6" height="691.2" fill-opacity="0.7686"/></g></mask><clipPath id="2fa0a85c62"><path d="M 0.617188 0.589844 L 50.316406 0.589844 L 50.316406 50.289062 L 0.617188 50.289062 Z M 0.617188 0.589844 " clip-rule="nonzero"/></clipPath><clipPath id="7b8c5b88bd"><path d="M 25.464844 0.589844 C 11.742188 0.589844 0.617188 11.714844 0.617188 25.4375 C 0.617188 39.160156 11.742188 50.289062 25.464844 50.289062 C 39.191406 50.289062 50.316406 39.160156 50.316406 25.4375 C 50.316406 11.714844 39.191406 0.589844 25.464844 0.589844 " clip-rule="nonzero"/></clipPath><clipPath id="99a592fe8a"><rect x="0" width="51" y="0" height="51"/></clipPath><clipPath id="b306f63f7d"><path d="M 701.453125 418.289062 L 835.292969 418.289062 L 835.292969 552.128906 L 701.453125 552.128906 Z M 701.453125 418.289062 " clip-rule="nonzero"/></clipPath><clipPath id="73d3a780fa"><path d="M 768.371094 418.289062 C 731.414062 418.289062 701.453125 448.25 701.453125 485.207031 C 701.453125 522.167969 731.414062 552.128906 768.371094 552.128906 C 805.332031 552.128906 835.292969 522.167969 835.292969 485.207031 C 835.292969 448.25 805.332031 418.289062 768.371094 418.289062 " clip-rule="nonzero"/></clipPath></defs><g clip-path="url(#7dc1d9c004)"><path fill="#ffffff" d="M 0 0.140625 L 1024.5 0.140625 L 1024.5 583.640625 L 0 583.640625 Z M 0 0.140625 " fill-opacity="1" fill-rule="nonzero"/><path fill="#ffffff" d="M 0 0.140625 L 1024.5 0.140625 L 1024.5 576.140625 L 0 576.140625 Z M 0 0.140625 " fill-opacity="1" fill-rule="nonzero"/><path fill="#f1f2f6" d="M 0 0.140625 L 1024.5 0.140625 L 1024.5 576.140625 L 0 576.140625 Z M 0 0.140625 " fill-opacity="1" fill-rule="nonzero"/></g><g clip-path="url(#2a05065705)"><g mask="url(#c871f7725d)"><g transform="matrix(1, 0, 0, 1, 0, 0.000000000000055289)"><g clip-path="url(#3a48a6a56e)"><g clip-path="url(#62b7d4c41a)"><g clip-path="url(#6ddb933056)"><path fill="#f7f7f7" d="M -82.957031 -55.285156 L 89.84375 -55.285156 L 89.84375 117.515625 L -82.957031 117.515625 Z M -82.957031 -55.285156 " fill-opacity="1" fill-rule="nonzero"/></g></g></g></g></g></g><g clip-path="url(#704d67faeb)"><g mask="url(#cf7e285797)"><g transform="matrix(1, 0, 0, 1, 0, 402)"><g clip-path="url(#628df24217)"><g clip-path="url(#1c942ac35a)"><g clip-path="url(#ff1741297e)"><path fill="#fafafa" d="M -91.773438 0.753906 L 206.976562 0.753906 L 206.976562 299.503906 L -91.773438 299.503906 Z M -91.773438 0.753906 " fill-opacity="1" fill-rule="nonzero"/></g></g></g></g></g></g><g clip-path="url(#e09e4fd2e1)"><g mask="url(#5af1915504)"><g transform="matrix(1, 0, 0, 1, 912, 0.000000000000055289)"><g clip-path="url(#d527dca9e9)"><g clip-path="url(#276a53306d)"><g clip-path="url(#ac19283651)"><path fill="#f8f8f8" d="M 0.664062 -65.90625 L 156.425781 -65.90625 L 156.425781 89.855469 L 0.664062 89.855469 Z M 0.664062 -65.90625 " fill-opacity="1" fill-rule="nonzero"/></g></g></g></g></g></g><g mask="url(#9d316a8232)"><g transform="matrix(1, 0, 0, 1, 651, 40)"><g clip-path="url(#6502ef89b4)"><g clip-path="url(#b660bbb45d)"><g clip-path="url(#d814adbbd3)"><path fill="#fafafa" d="M 0.0742188 0.4375 L 77.152344 0.4375 L 77.152344 77.515625 L 0.0742188 77.515625 Z M 0.0742188 0.4375 " fill-opacity="1" fill-rule="nonzero"/></g></g></g></g></g><g mask="url(#80e1457125)"><g transform="matrix(1, 0, 0, 1, 801, 200)"><g clip-path="url(#fb4bf54e9c)"><g clip-path="url(#05d7739238)"><g clip-path="url(#cfcbbc9756)"><path fill="#fafafa" d="M 1.128906 1.117188 L 111.664062 1.117188 L 111.664062 111.652344 L 1.128906 111.652344 Z M 1.128906 1.117188 " fill-opacity="1" fill-rule="nonzero"/></g></g></g></g></g><g mask="url(#f0c69232f9)"><g transform="matrix(1, 0, 0, 1, 247, 15)"><g clip-path="url(#99a592fe8a)"><g clip-path="url(#2fa0a85c62)"><g clip-path="url(#7b8c5b88bd)"><path fill="#fafafa" d="M 0.617188 0.589844 L 50.316406 0.589844 L 50.316406 50.289062 L 0.617188 50.289062 Z M 0.617188 0.589844 " fill-opacity="1" fill-rule="nonzero"/></g></g></g></g></g><g clip-path="url(#b306f63f7d)"><g clip-path="url(#73d3a780fa)"><path fill="#f8f7f7" d="M 701.453125 418.289062 L 835.292969 418.289062 L 835.292969 552.128906 L 701.453125 552.128906 Z M 701.453125 418.289062 " fill-opacity="1" fill-rule="nonzero"/></g></g></svg>